<?xml version="1.0" standalone="no"?>
<!DOCTYPE svg PUBLIC "-//W3C//DTD SVG 20010904//EN"
 "http://www.w3.org/TR/2001/REC-SVG-20010904/DTD/svg10.dtd">
<svg version="1.0" xmlns="http://www.w3.org/2000/svg"
 width="1435.000000pt" height="609.000000pt" viewBox="0 0 1435.000000 609.000000"
 preserveAspectRatio="xMidYMid meet">

<g transform="translate(0.000000,609.000000) scale(0.100000,-0.100000)"
fill="#000000" stroke="none">
<path d="M728 4113 c7 -3 16 -2 19 1 4 3 -2 6 -13 5 -11 0 -14 -3 -6 -6z"/>
<path d="M793 4085 c-3 -9 -3 -18 -1 -21 3 -3 8 4 11 16 6 23 -1 27 -10 5z"/>
<path d="M3262 3916 c-17 -63 -56 -183 -88 -267 -31 -85 -79 -219 -106 -299
-28 -80 -55 -148 -62 -152 -6 -5 -46 -22 -88 -40 -43 -17 -76 -33 -74 -35 2
-2 38 10 81 27 43 17 80 29 82 26 5 -5 -42 -144 -104 -306 -24 -63 -56 -146
-70 -185 -14 -38 -29 -74 -33 -78 -10 -12 -67 19 -80 42 -16 31 -12 70 11 102
11 16 16 29 11 29 -19 0 -44 -40 -49 -79 -7 -50 13 -85 61 -108 l34 -16 -15
-43 c-14 -41 -17 -43 -69 -54 -55 -12 -109 -6 -120 12 -3 5 6 23 22 39 41 43
21 48 -22 5 -41 -41 -40 -55 2 -76 l31 -16 -20 -26 c-15 -21 -17 -29 -8 -47
16 -29 35 -27 27 3 -9 38 28 73 87 82 l48 6 -16 -38 c-45 -109 -146 -194 -230
-194 -29 0 -30 5 -10 40 18 32 19 76 1 83 -11 4 -13 20 -9 69 3 35 0 89 -6
120 -47 223 -316 240 -411 26 l-21 -47 -117 75 c-121 79 -211 140 -297 204
-27 20 -95 70 -151 111 l-100 74 29 55 c26 49 28 62 25 125 -6 81 -30 136 -88
199 -83 90 -210 118 -311 68 l-46 -22 -49 46 c-27 25 -66 57 -86 71 -37 25
-37 26 -22 54 18 36 23 36 59 -1 16 -16 34 -30 41 -30 17 0 134 140 141 168 4
17 0 28 -16 38 -31 22 -26 32 21 45 81 21 151 -5 232 -88 l33 -34 54 36 c100
66 150 80 279 79 132 -1 231 -24 338 -76 87 -43 231 -186 335 -333 97 -137
105 -162 88 -263 -7 -43 -15 -101 -18 -130 l-5 -52 44 -20 c23 -11 63 -20 87
-20 38 0 43 2 38 20 -9 33 12 23 68 -35 30 -30 57 -55 60 -55 29 0 -76 107
-130 131 -48 22 -64 15 -35 -16 29 -31 13 -37 -50 -21 -55 14 -74 31 -64 56
17 47 34 160 29 195 -16 106 -57 188 -152 308 -174 219 -350 319 -592 334
-125 8 -256 -29 -341 -96 l-24 -19 -51 43 c-70 60 -105 75 -171 75 -95 0 -184
-59 -284 -189 -23 -30 -27 -32 -54 -22 -21 9 -32 8 -42 0 -17 -14 -18 -41 -2
-57 8 -8 8 -15 -2 -26 -7 -9 -10 -26 -6 -38 6 -23 96 -101 161 -140 l35 -20
29 31 c61 66 186 97 265 67 52 -20 135 -98 162 -152 30 -61 26 -164 -8 -233
-15 -30 -25 -58 -22 -63 5 -8 65 -53 261 -196 116 -85 307 -211 381 -252 41
-23 42 -25 42 -75 0 -64 23 -143 52 -180 80 -102 265 -78 350 44 10 14 23 21
32 18 13 -5 12 -13 -7 -57 -19 -46 -20 -52 -5 -66 15 -15 20 -15 62 -1 26 9
67 30 93 47 25 17 47 30 48 28 2 -2 -21 -70 -51 -153 -50 -138 -68 -206 -45
-165 28 48 275 702 406 1075 l53 150 83 33 c120 47 156 64 143 69 -6 2 -55
-15 -109 -37 -55 -22 -103 -40 -107 -40 -4 0 17 71 48 158 136 385 175 502
189 571 8 41 14 75 12 77 -2 2 -17 -48 -35 -110z m-2223 -165 c19 -16 21 -23
11 -40 -14 -27 -21 -26 -50 4 -19 20 -21 27 -10 40 16 19 22 19 49 -4z m-96
-110 c32 -34 33 -42 9 -64 -17 -16 -20 -15 -51 17 -28 29 -31 37 -22 55 16 28
31 26 64 -8z m-78 -146 c90 -74 95 -79 95 -95 0 -9 -6 -24 -13 -34 -16 -22
-20 -21 -116 54 -71 55 -85 82 -59 108 20 20 34 14 93 -33z m1459 -965 c38
-37 13 -148 -39 -172 -50 -23 -115 20 -115 76 1 43 30 98 60 113 30 16 68 9
94 -17z"/>
<path d="M2571 3643 c-12 -76 -24 -156 -27 -178 -3 -22 -8 -49 -10 -60 -4 -16
-3 -17 5 -5 5 8 16 65 25 125 9 61 22 143 30 183 7 39 10 72 6 72 -4 0 -17
-62 -29 -137z"/>
<path d="M1665 3726 c-95 -18 -169 -51 -206 -94 l-31 -35 38 -33 c44 -38 263
-201 299 -224 13 -8 26 -12 28 -10 2 3 56 67 120 143 65 76 117 144 117 151 0
30 -157 99 -245 109 -28 3 -81 0 -120 -7z m176 -22 c61 -18 169 -70 169 -82 0
-5 -193 -237 -225 -271 -2 -2 -75 50 -162 115 -87 66 -162 122 -167 126 -27
19 90 90 187 114 73 17 134 17 198 -2z"/>
<path d="M2874 3513 c-32 -43 -78 -106 -103 -141 -25 -35 -56 -76 -68 -90 -13
-15 -23 -31 -23 -37 0 -5 9 2 19 15 46 58 241 322 241 326 0 13 -15 -4 -66
-73z"/>
<path d="M2053 3533 c-55 -53 -197 -221 -201 -237 -2 -8 12 -24 30 -37 18 -13
40 -29 48 -36 25 -20 103 -77 150 -111 86 -60 87 -62 69 -75 -31 -23 -32 -53
-2 -87 37 -41 92 -51 122 -21 11 11 32 21 46 21 14 0 25 5 25 10 0 6 -16 10
-35 10 -19 0 -35 -4 -35 -10 0 -16 -40 -32 -65 -26 -58 15 -75 75 -27 95 39
16 81 4 92 -25 6 -16 18 -24 32 -24 20 0 27 10 47 76 41 132 14 235 -94 367
-46 55 -144 147 -158 147 -3 0 -23 -17 -44 -37z m161 -94 c122 -132 157 -243
116 -369 -12 -38 -24 -70 -25 -70 -2 0 -17 14 -33 30 -20 20 -40 30 -60 30
-20 0 -50 15 -89 44 -32 23 -102 75 -156 115 l-98 72 20 28 c24 34 99 119 159
183 l45 47 28 -20 c15 -10 57 -51 93 -90z"/>
<path d="M1066 3355 c-132 -54 -189 -172 -135 -282 35 -72 131 -133 208 -133
104 0 223 102 237 203 16 112 -100 236 -221 236 -16 0 -56 -10 -89 -24z m128
-136 c37 -29 37 -90 0 -124 -34 -32 -91 -33 -127 -5 -35 27 -41 53 -23 89 32
61 100 80 150 40z"/>
<path d="M2531 3364 c0 -11 3 -14 6 -6 3 7 2 16 -1 19 -3 4 -6 -2 -5 -13z"/>
<path d="M1796 3193 c-16 -16 -3 -44 36 -77 41 -35 71 -45 83 -27 12 21 -102
121 -119 104z"/>
<path d="M2799 2925 c-80 -42 -84 -60 -22 -108 45 -33 54 -27 77 55 26 90 22
93 -55 53z m51 -8 c0 -17 -30 -107 -36 -107 -8 0 -64 53 -64 61 0 8 79 59 93
59 4 0 7 -6 7 -13z"/>
<path d="M840 2776 c0 -2 64 -26 143 -52 78 -26 270 -91 427 -146 156 -54 288
-97 292 -96 13 5 -338 131 -602 218 -241 79 -260 84 -260 76z"/>
<path d="M2346 2194 c-9 -24 -7 -72 4 -79 13 -8 80 43 80 61 0 30 -73 46 -84
18z m48 -35 c-23 -25 -34 -24 -34 4 0 32 9 38 32 26 19 -10 19 -12 2 -30z"/>
<path d="M2505 2152 c-27 -15 -51 -34 -53 -44 -3 -18 45 -68 66 -68 15 0 41
57 49 107 3 18 2 33 -3 33 -5 0 -31 -13 -59 -28z m28 -47 c-14 -44 -16 -45
-37 -32 -32 22 -30 41 6 59 47 24 48 23 31 -27z"/>
</g>
</svg>
